<?xml version="1.0" encoding="utf-8"?>
<!-- Generator: Adobe Illustrator 24.0.1, SVG Export Plug-In . SVG Version: 6.00 Build 0)  -->
<svg version="1.1" id="Layer_1" xmlns="http://www.w3.org/2000/svg" xmlns:xlink="http://www.w3.org/1999/xlink" x="0px" y="0px"
	 viewBox="0 0 517.6 110" style="enable-background:new 0 0 517.6 110;" xml:space="preserve">
<style type="text/css">
	.st0{fill:#1E417D;}
	.st1{fill:#231F20;}
	.st2{fill:none;stroke:#221F1F;stroke-width:1.0687;stroke-miterlimit:10;}
</style>
<g>
	<g>
		<path class="st0" d="M52.1,35.1H12.3v26.6h13.3v13.3h26.6V35.1z M38.9,48.4v13.3H25.5V48.4H38.9z"/>
		<path class="st1" d="M62.1,41.7h9.7c2.8,0,5,0.7,6.7,2c1.7,1.3,2.6,3.3,2.6,6c0,2.7-1,4.8-2.8,6.2c-1.8,1.4-4.2,2-6.9,2h-3.1v8.5
			H62V41.7H62.1z M68.4,52.7h3c2.4,0,3.5-0.9,3.5-2.7c0-1.9-1.2-2.8-3.5-2.8h-3V52.7z"/>
		<path class="st1" d="M90.4,66.6h-6.2V41.7h10.2c2.8,0,5.1,0.6,6.7,2c1.7,1.4,2.6,3.3,2.6,6c0,3.8-2,6.1-4.9,7.2l5.6,9.7h-6.8
			l-5-8.8h-2V66.6z M90.4,52.6h3.4c2.2,0,3.5-1,3.5-2.6s-1.1-2.8-3.5-2.8h-3.4V52.6z"/>
		<path class="st1" d="M109.6,45.1c5.1-4.9,13.3-5,18.4-0.1c2.5,2.4,3.8,5.7,3.7,9c0,7.2-5.8,12.9-12.9,12.9h-0.1
			c-3.4,0.1-6.7-1.3-9.2-3.7c-2.5-2.4-3.8-5.7-3.7-9.1C105.8,50.7,107.1,47.5,109.6,45.1z M112.2,54.1c0,1.8,0.6,3.6,1.9,4.9
			c2.4,2.6,6.4,2.8,9,0.4c0.1-0.1,0.2-0.2,0.4-0.4c1.3-1.3,1.9-3.1,1.9-4.9c0-1.8-0.6-3.5-1.9-4.9c-2.4-2.6-6.4-2.8-9-0.4
			c-0.1,0.1-0.2,0.2-0.4,0.4C112.8,50.6,112.1,52.3,112.2,54.1L112.2,54.1z"/>
		<path class="st1" d="M138.7,41.7l5.3,16.5l5.5-16.5h6.7l-9,24.9h-6.6l-9-24.9C131.6,41.7,138.7,41.7,138.7,41.7z"/>
		<path class="st1" d="M165.1,66.6h-6.3V41.7h6.3V66.6z"/>
		<path class="st1" d="M169.9,41.7h8.2c4.1,0,7.4,1.1,10,3.2c2.7,2.1,4,5.1,4,9.1c0.1,2.5-0.6,4.8-1.9,6.8c-2.5,3.8-6.7,5.7-12,5.7
			H170V41.7H169.9z M176.1,60.8h2c2.2,0,4-0.5,5.3-1.7s2.1-2.8,2.1-4.9c0-2.1-0.7-3.7-2.1-4.9c-1.5-1.2-3.4-1.8-5.3-1.7h-2V60.8z"/>
		<path class="st1" d="M212.9,47.3h-11.2v4.1h10.2v5.3h-10.2v4.3h11.2v5.6h-17.4V41.7h17.4V47.3z"/>
		<path class="st1" d="M223.1,51.6v15h-6.2V41.7h6.9l9.2,14l0,0v-14h6.2v24.9H233L223.1,51.6L223.1,51.6z"/>
		<path class="st1" d="M249,47.5h-7.1v-5.7h20.3v5.7h-7.1v19.1h-6.3V47.5H249z"/>
	</g>
	<line class="st2" x1="283" y1="22.9" x2="283" y2="87.1"/>
	<g>
		<path class="st1" d="M306.8,65.7V40.4h12.4c3.2,0,5.6,0.6,7.2,1.8c1.6,1.2,2.4,2.8,2.4,4.8c0,1.3-0.3,2.5-1,3.4
			c-0.7,1-1.5,1.7-2.7,2.3c-1.1,0.5-2.4,0.8-3.9,0.8l0.7-1.5c1.6,0,3,0.3,4.2,0.8c1.2,0.5,2.2,1.3,2.9,2.3c0.7,1,1,2.3,1,3.7
			c0,2.2-0.9,3.9-2.6,5.1c-1.7,1.2-4.2,1.8-7.5,1.8H306.8z M312.7,61.3h6.9c1.5,0,2.6-0.3,3.4-0.8c0.8-0.5,1.2-1.3,1.2-2.3
			c0-1.1-0.4-1.9-1.2-2.4c-0.8-0.5-1.9-0.8-3.4-0.8h-7.3v-4.3h6.2c1.4,0,2.5-0.2,3.3-0.7c0.8-0.5,1.1-1.2,1.1-2.3
			c0-1-0.4-1.8-1.1-2.2c-0.8-0.5-1.8-0.7-3.3-0.7h-5.8V61.3z"/>
		<path class="st1" d="M346.7,66.1c-2,0-3.8-0.3-5.5-1c-1.7-0.7-3.2-1.6-4.4-2.7c-1.3-1.2-2.2-2.6-2.9-4.2c-0.7-1.6-1-3.3-1-5.2
			c0-1.9,0.3-3.6,1-5.2c0.7-1.6,1.7-3,2.9-4.1c1.3-1.2,2.7-2.1,4.4-2.7c1.7-0.7,3.5-1,5.5-1c2,0,3.8,0.3,5.5,1
			c1.7,0.6,3.1,1.5,4.4,2.7c1.3,1.2,2.2,2.6,2.9,4.2c0.7,1.6,1,3.3,1,5.2c0,1.9-0.3,3.6-1,5.2c-0.7,1.6-1.7,3-2.9,4.2
			c-1.3,1.2-2.7,2.1-4.4,2.7C350.5,65.8,348.7,66.1,346.7,66.1z M346.7,61.2c1.1,0,2.2-0.2,3.1-0.6c1-0.4,1.8-1,2.5-1.7
			c0.7-0.7,1.3-1.6,1.7-2.6c0.4-1,0.6-2.1,0.6-3.3c0-1.2-0.2-2.3-0.6-3.3c-0.4-1-1-1.8-1.7-2.6c-0.7-0.7-1.6-1.3-2.5-1.7
			c-1-0.4-2-0.6-3.1-0.6c-1.1,0-2.2,0.2-3.1,0.6c-1,0.4-1.8,1-2.5,1.7c-0.7,0.7-1.3,1.6-1.7,2.6c-0.4,1-0.6,2.1-0.6,3.3
			c0,1.2,0.2,2.3,0.6,3.3c0.4,1,1,1.8,1.7,2.6c0.7,0.7,1.5,1.3,2.5,1.7C344.5,61,345.6,61.2,346.7,61.2z"/>
		<path class="st1" d="M369.8,65.7V45.2h-8.1v-4.8h22v4.8h-8.1v20.5H369.8z"/>
		<path class="st1" d="M382.3,65.7l11.2-25.3h5.8l11.3,25.3h-6.1l-9.3-22.3h2.3l-9.3,22.3H382.3z M388,60.3l1.5-4.4h13.1l1.5,4.4
			H388z"/>
		<path class="st1" d="M413.3,65.7V40.4h4.8l14.9,18.2h-2.3V40.4h5.8v25.3h-4.8l-14.9-18.2h2.3v18.2H413.3z"/>
		<path class="st1" d="M442.5,65.7V40.4h5.9v25.3H442.5z"/>
		<path class="st1" d="M466.4,66.1c-2,0-3.8-0.3-5.4-1c-1.7-0.6-3.1-1.5-4.4-2.7c-1.2-1.2-2.2-2.6-2.9-4.2c-0.7-1.6-1-3.3-1-5.2
			c0-1.9,0.3-3.6,1-5.2c0.7-1.6,1.6-3,2.9-4.2c1.2-1.2,2.7-2.1,4.4-2.7s3.5-1,5.4-1c2.2,0,4.2,0.4,6,1.1s3.3,1.9,4.5,3.3l-3.8,3.5
			c-0.8-1-1.8-1.7-2.9-2.2c-1.1-0.5-2.2-0.8-3.5-0.8c-1.2,0-2.3,0.2-3.2,0.6c-1,0.4-1.8,1-2.6,1.7c-0.7,0.7-1.3,1.6-1.7,2.6
			c-0.4,1-0.6,2.1-0.6,3.3c0,1.2,0.2,2.3,0.6,3.3c0.4,1,1,1.8,1.7,2.6c0.7,0.7,1.6,1.3,2.6,1.7c1,0.4,2.1,0.6,3.2,0.6
			c1.3,0,2.4-0.3,3.5-0.8c1.1-0.5,2-1.3,2.9-2.3l3.8,3.5c-1.2,1.5-2.7,2.6-4.5,3.4C470.6,65.7,468.7,66.1,466.4,66.1z"/>
		<path class="st1" d="M477,65.7l11.2-25.3h5.8l11.3,25.3h-6.1l-9.3-22.3h2.3L483,65.7H477z M482.7,60.3l1.5-4.4h13.1l1.5,4.4H482.7
			z"/>
	</g>
</g>
</svg>
