<svg id="Capa_1" enable-background="new 0 0 505 505" height="512" viewBox="0 0 505 505" width="512" xmlns="http://www.w3.org/2000/svg"><g><path d="m132.262 59.355h-105.759c-4.142 0-7.5-3.358-7.5-7.5s3.358-7.5 7.5-7.5h105.759c4.142 0 7.5 3.358 7.5 7.5s-3.358 7.5-7.5 7.5z" fill="#e7e8ed"/><path d="m30.503 89.426h-19c-4.142 0-7.5-3.358-7.5-7.5s3.358-7.5 7.5-7.5h19c4.142 0 7.5 3.358 7.5 7.5s-3.357 7.5-7.5 7.5z" fill="#e7e8ed"/><g><path d="m466.875 344.445c12.273 0 24.547-3.788 35.021-11.363l-8.791-12.154c-14.676 10.615-34.069 11.298-49.354 2.054v-37.577c7.393 3.112 15.259 4.672 23.125 4.672 12.273 0 24.547-3.788 35.021-11.363l-8.791-12.154c-14.676 10.615-34.069 11.298-49.354 2.054v-44.963h-15v44.963c-14.23 8.606-32.02 8.606-46.25 0v-44.963h-15v44.962c-14.23 8.606-32.021 8.606-46.25 0v-44.963h-15v44.962c-14.23 8.606-32.021 8.607-46.251 0v-44.962h-15v44.963c-14.229 8.606-32.02 8.607-46.25 0v-44.963h-15v44.963c-14.23 8.605-32.02 8.607-46.25 0v-44.963h-15v44.963c-14.229 8.606-32.02 8.607-46.25 0v-44.963h-15v44.963c-15.285 9.244-34.679 8.562-49.354-2.055l-8.791 12.154c17.187 12.43 39.219 14.657 58.146 6.689v37.58c-15.285 9.244-34.679 8.562-49.354-2.055l-8.791 12.154c17.187 12.43 39.219 14.657 58.146 6.689v37.58c-15.285 9.244-34.679 8.562-49.354-2.055l-8.795 12.156c19.514 14.114 45.278 15.08 65.646 2.896 18.873 11.289 42.378 11.289 61.25 0 18.873 11.289 42.378 11.29 61.25 0 18.874 11.289 42.378 11.29 61.25 0 18.871 11.288 42.374 11.289 61.25 0 18.871 11.288 42.375 11.289 61.25 0 18.873 11.288 42.377 11.289 61.25 0 9.437 5.645 20.031 8.467 30.625 8.467 12.273 0 24.547-3.788 35.021-11.363l-8.791-12.154c-14.676 10.615-34.069 11.298-49.354 2.054v-37.577c7.392 3.113 15.258 4.672 23.124 4.672zm-38.125-59.04v37.577c-14.23 8.606-32.02 8.606-46.25 0v-37.577c14.786 6.224 31.465 6.225 46.25 0zm-61.25 0v37.577c-14.23 8.606-32.021 8.606-46.25 0v-37.577c14.785 6.224 31.464 6.225 46.25 0zm-61.25 0v37.577c-14.23 8.606-32.021 8.607-46.251 0v-37.577c14.785 6.224 31.464 6.225 46.251 0zm-61.25.001v37.577c-14.229 8.606-32.02 8.607-46.25 0v-37.577c14.786 6.224 31.465 6.224 46.25 0zm-61.25 0v37.577c-14.23 8.605-32.02 8.607-46.25 0v-37.577c14.785 6.223 31.465 6.224 46.25 0zm-61.25-.001v37.577c-14.229 8.606-32.02 8.607-46.25 0v-37.577c14.785 6.224 31.465 6.225 46.25 0zm-46.25 91.945v-37.577c14.785 6.224 31.465 6.225 46.25 0v37.577c-14.229 8.606-32.02 8.607-46.25 0zm61.25 0v-37.577c14.785 6.224 31.465 6.225 46.25.001v37.577c-14.23 8.605-32.02 8.606-46.25-.001zm61.25 0v-37.577c14.786 6.224 31.465 6.225 46.25 0v37.577c-14.229 8.606-32.02 8.607-46.25 0zm61.25 0v-37.577c14.785 6.224 31.464 6.224 46.251 0v37.577c-14.231 8.607-32.021 8.607-46.251 0zm61.25.001v-37.577c14.784 6.223 31.464 6.224 46.25 0v37.577c-14.23 8.606-32.02 8.605-46.25 0zm61.25 0v-37.577c14.785 6.224 31.465 6.225 46.25 0v37.577c-14.23 8.606-32.019 8.606-46.25 0z" fill="#d6d8e0"/><path d="m497.5 460.645c-4.143 0-7.5-3.358-7.5-7.5v-221.993h-475v221.994c0 4.142-3.358 7.5-7.5 7.5s-7.5-3.358-7.5-7.5v-229.494c0-4.142 3.358-7.5 7.5-7.5h490c4.143 0 7.5 3.358 7.5 7.5v229.494c0 4.141-3.357 7.499-7.5 7.499z" fill="#526071"/></g><g><g><g><circle cx="132.262" cy="144.11" fill="#f5dc60" r="99.753"/></g></g><g><g><path d="m153.762 241.535c-6.92 1.53-14.12 2.33-21.5 2.33-55.14 0-99.75-44.62-99.75-99.76 0-55.13 44.61-99.75 99.75-99.75 7.38 0 14.58.8 21.5 2.32-44.79 9.82-78.25 49.68-78.25 97.43 0 47.76 33.46 87.62 78.25 97.43z" fill="#ddc448"/></g></g><path d="m161.753 48.775-.01.02c-20.08 5.54-39.21 13.84-56.87 24.59-14.33 8.71-27.69 19.05-39.8 30.84l-.47.82-18.73-10.81-.03-.02c17.24-29.82 49.47-49.86 86.42-49.86 7.39 0 14.58.8 21.5 2.32 2.71.59 5.37 1.3 7.99 2.1z" fill="#7da2dc"/><path d="m132.263 222.235v21.63c-47.53 0-87.25-33.17-97.29-77.65 19.4 19.12 42.06 34.48 66.82 45.4 9.54 4.21 19.4 7.77 29.5 10.62z" fill="#7da2dc"/><path d="m200.292 105.667c9.38 36.55 9.38 74.88 0 111.43-9.76 9.1-21.34 16.26-34.15 20.87 5.31-37.34 5.31-75.22 0-112.56l-.37-.64 34.16-19.72z" fill="#e7e8ed"/><path d="m218.682 94.217c8.49 14.67 13.34 31.71 13.34 49.89 0 28.84-12.2 54.79-31.73 72.99 9.38-36.55 9.38-74.88 0-111.43l-.36-.62 18.72-10.81z" fill="#7da2dc"/><path d="m132.263 182.795v39.44h-.97c-10.1-2.85-19.96-6.41-29.5-10.62-24.76-10.92-47.42-26.28-66.82-45.4-1.61-7.11-2.46-14.51-2.46-22.11 0-6.11.55-12.08 1.6-17.89 13.38 10.57 27.42 20.25 42.01 28.99 17.66 10.6 36.14 19.82 55.27 27.59z" fill="#e7e8ed"/><path d="m196.823 68.025c-35.03 13.97-67.89 32.82-97.63 56l-.43.74-18.64-10.76-15.52-8.96.47-.82c12.11-11.79 25.47-22.13 39.8-30.84 17.66-10.75 36.79-19.05 56.87-24.59l.01-.02c13.04 4.02 24.93 10.64 35.07 19.25z" fill="#e7e8ed"/><g><g fill="#bdc0c9"><path d="m76.123 155.205c2.39 21.65 11.7 41.21 25.67 56.41-24.76-10.92-47.42-26.28-66.82-45.4-1.61-7.11-2.46-14.51-2.46-22.11 0-6.11.55-12.08 1.6-17.89 13.38 10.57 27.42 20.25 42.01 28.99z"/><path d="m80.123 114.005-15.52-8.96.47-.82c12.11-11.79 25.47-22.13 39.8-30.84-11.25 11.21-19.85 25.09-24.75 40.62z"/></g></g><g><g><path d="m153.763 46.675c-18.86 4.13-35.7 13.59-48.89 26.71-14.33 8.71-27.69 19.05-39.8 30.84l-.47.82-18.73-10.81-.03-.02c17.24-29.82 49.47-49.86 86.42-49.86 7.39 0 14.581.8 21.5 2.32z" fill="#6d94c5"/></g></g><g><g><path d="m132.263 234.145v9.72c-47.53 0-87.25-33.17-97.29-77.65 19.4 19.12 42.06 34.48 66.82 45.4 8.57 9.33 18.9 17.01 30.47 22.53z" fill="#6d94c5"/></g></g></g></g></svg>